<svg xmlns="http://www.w3.org/2000/svg" xmlns:xlink="http://www.w3.org/1999/xlink" width="375" zoomAndPan="magnify" viewBox="45 110 190 66" height="375" preserveAspectRatio="xMidYMid meet" version="1.0"><defs><clipPath id="db908f256a"><path d="M 63.941406 113.625 L 177.828125 113.625 L 177.828125 130.710938 L 63.941406 130.710938 Z M 63.941406 113.625 " clip-rule="nonzero"/></clipPath></defs><path fill="#14b8a6" d="M 113.1875 164.945312 L 116.378906 164.945312 C 117.203125 164.945312 117.933594 165.113281 118.5625 165.449219 C 119.199219 165.773438 119.695312 166.238281 120.046875 166.828125 C 120.398438 167.421875 120.574219 168.097656 120.574219 168.859375 C 120.574219 169.625 120.398438 170.304688 120.046875 170.894531 C 119.695312 171.488281 119.199219 171.953125 118.5625 172.285156 C 117.933594 172.613281 117.203125 172.777344 116.378906 172.777344 L 113.1875 172.777344 Z M 116.332031 172.0625 C 117.015625 172.0625 117.617188 171.929688 118.128906 171.652344 C 118.644531 171.382812 119.042969 171.003906 119.324219 170.519531 C 119.609375 170.039062 119.753906 169.484375 119.753906 168.859375 C 119.753906 168.238281 119.609375 167.6875 119.324219 167.199219 C 119.042969 166.71875 118.644531 166.34375 118.128906 166.066406 C 117.617188 165.796875 117.015625 165.65625 116.332031 165.65625 L 114.015625 165.65625 L 114.015625 172.0625 Z M 116.332031 172.0625 " fill-opacity="1" fill-rule="nonzero"/><path fill="#14b8a6" d="M 125.257812 164.945312 L 126.089844 164.945312 L 126.089844 172.777344 L 125.257812 172.777344 Z M 125.257812 164.945312 " fill-opacity="1" fill-rule="nonzero"/><path fill="#14b8a6" d="M 136.992188 168.859375 L 137.785156 168.859375 L 137.785156 171.851562 C 137.417969 172.175781 136.984375 172.417969 136.488281 172.589844 C 135.988281 172.761719 135.464844 172.847656 134.910156 172.847656 C 134.121094 172.847656 133.417969 172.675781 132.796875 172.332031 C 132.171875 171.988281 131.679688 171.515625 131.324219 170.90625 C 130.964844 170.296875 130.785156 169.617188 130.785156 168.859375 C 130.785156 168.105469 130.964844 167.421875 131.324219 166.816406 C 131.679688 166.207031 132.171875 165.734375 132.796875 165.390625 C 133.417969 165.046875 134.128906 164.875 134.921875 164.875 C 135.511719 164.875 136.058594 164.972656 136.558594 165.167969 C 137.066406 165.355469 137.488281 165.636719 137.832031 166.007812 L 137.320312 166.535156 C 136.695312 165.925781 135.90625 165.625 134.957031 165.625 C 134.316406 165.625 133.742188 165.761719 133.226562 166.042969 C 132.71875 166.320312 132.324219 166.703125 132.035156 167.199219 C 131.746094 167.699219 131.605469 168.253906 131.605469 168.859375 C 131.605469 169.476562 131.746094 170.03125 132.035156 170.519531 C 132.324219 171.011719 132.71875 171.402344 133.226562 171.6875 C 133.734375 171.96875 134.304688 172.109375 134.945312 172.109375 C 135.746094 172.109375 136.429688 171.90625 136.992188 171.503906 Z M 136.992188 168.859375 " fill-opacity="1" fill-rule="nonzero"/><path fill="#14b8a6" d="M 142.953125 164.945312 L 143.785156 164.945312 L 143.785156 172.777344 L 142.953125 172.777344 Z M 142.953125 164.945312 " fill-opacity="1" fill-rule="nonzero"/><path fill="#14b8a6" d="M 150.691406 165.65625 L 147.945312 165.65625 L 147.945312 164.945312 L 154.265625 164.945312 L 154.265625 165.65625 L 151.519531 165.65625 L 151.519531 172.777344 L 150.691406 172.777344 Z M 150.691406 165.65625 " fill-opacity="1" fill-rule="nonzero"/><path fill="#14b8a6" d="M 163.335938 170.683594 L 158.976562 170.683594 L 158.042969 172.777344 L 157.175781 172.777344 L 160.753906 164.945312 L 161.570312 164.945312 L 165.148438 172.777344 L 164.28125 172.777344 Z M 163.03125 170.019531 L 161.160156 165.808594 L 159.28125 170.019531 Z M 163.03125 170.019531 " fill-opacity="1" fill-rule="nonzero"/><path fill="#14b8a6" d="M 169.28125 164.945312 L 170.109375 164.945312 L 170.109375 172.0625 L 174.492188 172.0625 L 174.492188 172.777344 L 169.28125 172.777344 Z M 169.28125 164.945312 " fill-opacity="1" fill-rule="nonzero"/><g clip-path="url(#db908f256a)"><path fill="#14b8a6" d="M 63.941406 130.710938 C 66.027344 129.34375 68.175781 128.074219 70.363281 126.871094 C 72.554688 125.671875 74.789062 124.539062 77.0625 123.488281 C 81.609375 121.382812 86.308594 119.578125 91.132812 118.117188 C 95.949219 116.652344 100.882812 115.527344 105.882812 114.769531 C 110.882812 114.015625 115.945312 113.628906 121.011719 113.625 C 126.078125 113.625 131.140625 114.007812 136.140625 114.765625 C 141.140625 115.519531 146.078125 116.640625 150.894531 118.109375 L 151.796875 118.382812 L 152.699219 118.675781 L 153.59375 118.964844 L 154.488281 119.273438 L 155.378906 119.578125 L 157.152344 120.222656 L 158.03125 120.558594 C 160.378906 121.453125 162.691406 122.429688 164.964844 123.484375 C 167.238281 124.535156 169.46875 125.664062 171.660156 126.867188 C 173.847656 128.074219 175.996094 129.339844 178.082031 130.710938 C 175.761719 129.796875 173.453125 128.886719 171.128906 128.027344 C 168.808594 127.164062 166.476562 126.34375 164.136719 125.570312 C 161.796875 124.800781 159.449219 124.074219 157.085938 123.410156 L 156.199219 123.15625 L 155.308594 122.917969 L 154.425781 122.679688 L 153.535156 122.453125 L 152.644531 122.222656 L 151.75 122.007812 L 150.859375 121.789062 L 149.964844 121.582031 C 145.199219 120.488281 140.394531 119.632812 135.5625 119.0625 C 130.730469 118.488281 125.871094 118.195312 121.011719 118.191406 C 116.152344 118.191406 111.296875 118.484375 106.460938 119.054688 C 101.628906 119.628906 96.824219 120.480469 92.054688 121.578125 C 89.671875 122.125 87.300781 122.738281 84.9375 123.402344 C 82.574219 124.070312 80.222656 124.792969 77.882812 125.566406 C 75.546875 126.339844 73.214844 127.160156 70.894531 128.027344 C 68.570312 128.886719 66.261719 129.796875 63.941406 130.710938 " fill-opacity="1" fill-rule="nonzero"/></g><path fill="#0A1929" d="M 58.882812 157.980469 C 56.871094 157.980469 55.050781 157.546875 53.421875 156.671875 C 51.792969 155.792969 50.511719 154.578125 49.578125 153.027344 C 48.648438 151.476562 48.1875 149.722656 48.1875 147.765625 C 48.1875 145.8125 48.648438 144.058594 49.578125 142.507812 C 50.511719 140.957031 51.792969 139.746094 53.421875 138.871094 C 55.050781 137.992188 56.875 137.550781 58.902344 137.550781 C 60.617188 137.550781 62.164062 137.855469 63.542969 138.460938 C 64.929688 139.066406 66.09375 139.929688 67.039062 141.058594 L 64.105469 143.757812 C 62.765625 142.214844 61.105469 141.441406 59.136719 141.441406 C 57.914062 141.441406 56.824219 141.710938 55.867188 142.25 C 54.90625 142.789062 54.160156 143.535156 53.621094 144.492188 C 53.082031 145.453125 52.816406 146.542969 52.816406 147.765625 C 52.816406 148.992188 53.082031 150.082031 53.621094 151.039062 C 54.160156 151.996094 54.90625 152.746094 55.867188 153.28125 C 56.824219 153.820312 57.914062 154.089844 59.136719 154.089844 C 61.105469 154.089844 62.765625 153.304688 64.105469 151.738281 L 67.039062 154.453125 C 66.09375 155.597656 64.925781 156.472656 63.53125 157.082031 C 62.144531 157.679688 60.59375 157.980469 58.882812 157.980469 Z M 58.882812 157.980469 " fill-opacity="1" fill-rule="nonzero"/><path fill="#0A1929" d="M 82.972656 157.640625 L 79.160156 152.136719 L 74.953125 152.136719 L 74.953125 157.640625 L 70.382812 157.640625 L 70.382812 137.890625 L 78.941406 137.890625 C 80.683594 137.890625 82.199219 138.183594 83.484375 138.765625 C 84.777344 139.351562 85.769531 140.179688 86.464844 141.257812 C 87.167969 142.324219 87.519531 143.589844 87.519531 145.054688 C 87.519531 146.527344 87.160156 147.796875 86.453125 148.851562 C 85.753906 149.914062 84.75 150.730469 83.449219 151.296875 L 87.878906 157.640625 Z M 82.890625 145.054688 C 82.890625 143.949219 82.53125 143.101562 81.816406 142.507812 C 81.097656 141.917969 80.054688 141.617188 78.683594 141.617188 L 74.953125 141.617188 L 74.953125 148.503906 L 78.683594 148.503906 C 80.054688 148.503906 81.097656 148.203125 81.816406 147.601562 C 82.53125 146.996094 82.890625 146.148438 82.890625 145.054688 Z M 82.890625 145.054688 " fill-opacity="1" fill-rule="nonzero"/><path fill="#0A1929" d="M 100.972656 157.980469 C 98.921875 157.980469 97.070312 157.542969 95.417969 156.660156 C 93.773438 155.773438 92.484375 154.554688 91.550781 153.003906 C 90.621094 151.453125 90.160156 149.707031 90.160156 147.765625 C 90.160156 145.824219 90.621094 144.082031 91.550781 142.53125 C 92.484375 140.980469 93.773438 139.765625 95.417969 138.882812 C 97.070312 137.996094 98.921875 137.550781 100.972656 137.550781 C 103.019531 137.550781 104.863281 137.996094 106.5 138.882812 C 108.136719 139.765625 109.421875 140.980469 110.355469 142.53125 C 111.296875 144.082031 111.769531 145.824219 111.769531 147.765625 C 111.769531 149.707031 111.296875 151.453125 110.355469 153.003906 C 109.421875 154.554688 108.136719 155.773438 106.5 156.660156 C 104.863281 157.542969 103.019531 157.980469 100.972656 157.980469 Z M 100.972656 154.089844 C 102.132812 154.089844 103.183594 153.820312 104.128906 153.28125 C 105.066406 152.746094 105.804688 151.996094 106.335938 151.039062 C 106.875 150.082031 107.140625 148.992188 107.140625 147.765625 C 107.140625 146.542969 106.875 145.453125 106.335938 144.492188 C 105.804688 143.535156 105.066406 142.789062 104.128906 142.25 C 103.183594 141.710938 102.132812 141.441406 100.972656 141.441406 C 99.800781 141.441406 98.746094 141.710938 97.804688 142.25 C 96.867188 142.789062 96.132812 143.535156 95.59375 144.492188 C 95.058594 145.453125 94.789062 146.542969 94.789062 147.765625 C 94.789062 148.992188 95.058594 150.082031 95.59375 151.039062 C 96.132812 151.996094 96.867188 152.746094 97.804688 153.28125 C 98.746094 153.820312 99.800781 154.089844 100.972656 154.089844 Z M 100.972656 154.089844 " fill-opacity="1" fill-rule="nonzero"/><path fill="#0A1929" d="M 145.339844 137.890625 L 138.886719 157.640625 L 133.980469 157.640625 L 129.632812 144.273438 L 125.144531 157.640625 L 120.257812 157.640625 L 113.769531 137.890625 L 118.515625 137.890625 L 122.96875 151.773438 L 127.621094 137.890625 L 131.851562 137.890625 L 136.375 151.890625 L 140.96875 137.890625 Z M 145.339844 137.890625 " fill-opacity="1" fill-rule="nonzero"/><path fill="#0A1929" d="M 148.578125 137.890625 L 157.554688 137.890625 C 159.695312 137.890625 161.589844 138.300781 163.234375 139.117188 C 164.882812 139.933594 166.167969 141.089844 167.078125 142.578125 C 167.988281 144.066406 168.445312 145.796875 168.445312 147.765625 C 168.445312 149.746094 167.988281 151.480469 167.078125 152.96875 C 166.167969 154.449219 164.882812 155.597656 163.234375 156.414062 C 161.589844 157.234375 159.695312 157.640625 157.554688 157.640625 L 148.578125 157.640625 Z M 157.332031 153.890625 C 159.300781 153.890625 160.875 153.339844 162.054688 152.242188 C 163.226562 151.136719 163.816406 149.644531 163.816406 147.765625 C 163.816406 145.890625 163.226562 144.398438 162.054688 143.300781 C 160.875 142.195312 159.300781 141.640625 157.332031 141.640625 L 153.148438 141.640625 L 153.148438 153.890625 Z M 157.332031 153.890625 " fill-opacity="1" fill-rule="nonzero"/><path fill="#0A1929" d="M 185.167969 153.410156 L 176.003906 153.410156 L 174.25 157.640625 L 169.566406 157.640625 L 178.363281 137.890625 L 182.886719 137.890625 L 191.710938 157.640625 L 186.921875 157.640625 Z M 183.730469 149.941406 L 180.597656 142.378906 L 177.464844 149.941406 Z M 183.730469 149.941406 " fill-opacity="1" fill-rule="nonzero"/><path fill="#0A1929" d="M 206.636719 157.640625 L 202.824219 152.136719 L 198.617188 152.136719 L 198.617188 157.640625 L 194.046875 157.640625 L 194.046875 137.890625 L 202.605469 137.890625 C 204.347656 137.890625 205.863281 138.183594 207.152344 138.765625 C 208.441406 139.351562 209.433594 140.179688 210.128906 141.257812 C 210.832031 142.324219 211.183594 143.589844 211.183594 145.054688 C 211.183594 146.527344 210.824219 147.796875 210.117188 148.851562 C 209.417969 149.914062 208.414062 150.730469 207.117188 151.296875 L 211.546875 157.640625 Z M 206.554688 145.054688 C 206.554688 143.949219 206.195312 143.101562 205.480469 142.507812 C 204.761719 141.917969 203.71875 141.617188 202.347656 141.617188 L 198.617188 141.617188 L 198.617188 148.503906 L 202.347656 148.503906 C 203.71875 148.503906 204.761719 148.203125 205.480469 147.601562 C 206.195312 146.996094 206.554688 146.148438 206.554688 145.054688 Z M 206.554688 145.054688 " fill-opacity="1" fill-rule="nonzero"/><path fill="#0A1929" d="M 224.519531 157.980469 C 222.507812 157.980469 220.6875 157.546875 219.0625 156.671875 C 217.429688 155.792969 216.152344 154.578125 215.214844 153.027344 C 214.285156 151.476562 213.824219 149.722656 213.824219 147.765625 C 213.824219 145.8125 214.285156 144.058594 215.214844 142.507812 C 216.152344 140.957031 217.429688 139.746094 219.0625 138.871094 C 220.6875 137.992188 222.515625 137.550781 224.542969 137.550781 C 226.253906 137.550781 227.804688 137.855469 229.183594 138.460938 C 230.566406 139.066406 231.734375 139.929688 232.675781 141.058594 L 229.742188 143.757812 C 228.402344 142.214844 226.746094 141.441406 224.777344 141.441406 C 223.550781 141.441406 222.460938 141.710938 221.503906 142.25 C 220.546875 142.789062 219.796875 143.535156 219.257812 144.492188 C 218.722656 145.453125 218.453125 146.542969 218.453125 147.765625 C 218.453125 148.992188 218.722656 150.082031 219.257812 151.039062 C 219.796875 151.996094 220.546875 152.746094 221.503906 153.28125 C 222.460938 153.820312 223.550781 154.089844 224.777344 154.089844 C 226.746094 154.089844 228.402344 153.304688 229.742188 151.738281 L 232.675781 154.453125 C 231.734375 155.597656 230.5625 156.472656 229.171875 157.082031 C 227.78125 157.679688 226.230469 157.980469 224.519531 157.980469 Z M 224.519531 157.980469 " fill-opacity="1" fill-rule="nonzero"/></svg>
